<!-- This Source Code Form is subject to the terms of the Mozilla Public
   - License, v. 2.0. If a copy of the MPL was not distributed with this
   - file, You can obtain one at http://mozilla.org/MPL/2.0/. -->
<svg xmlns="http://www.w3.org/2000/svg" width="16" height="16" viewBox="0 0 16 16">
  <style>
    :root {
      color-scheme: light dark;
    }
    g.prefer-color-scheme.default:target {
      fill: rgb(21, 20, 26); /* https://searchfox.org/mozilla-central/rev/d6576544301cacc0e393fbc919c53e4e6b0d46ec/toolkit/themes/shared/in-content/common-shared.css#16 */
    }
    g.prefer-color-scheme.toolbar:target {
      fill: rgb(91, 91, 102); /* https://searchfox.org/mozilla-central/rev/d6576544301cacc0e393fbc919c53e4e6b0d46ec/browser/themes/shared/browser-custom-colors.css#74 */
    }
    @media (prefers-color-scheme: dark) {
      g.prefer-color-scheme.default:target,
      g.prefer-color-scheme.toolbar:target {
        fill: rgb(251, 251, 254); /* https://searchfox.org/mozilla-central/rev/d6576544301cacc0e393fbc919c53e4e6b0d46ec/browser/themes/shared/browser-custom-colors.css#74 */
      }
    }
  </style>
<symbol id="icon">
  <path d="M14 3h-2v2h2v8H2V5h7V3h-.849L6.584 1.538A2 2 0 0 0 5.219 1H2a2 2 0 0 0-2 2v10a2 2 0 0 0 2 2h12a2 2 0 0 0 2-2V5a2 2 0 0 0-2-2zM2 3h3.219l1.072 1H2z"></path><path fill="context-fill" d="M8.146 6.146a.5.5 0 0 0 0 .707l2 2a.5.5 0 0 0 .707 0l2-2a.5.5 0 1 0-.707-.707L11 7.293V.5a.5.5 0 0 0-1 0v6.793L8.854 6.146a.5.5 0 0 0-.708 0z"></path>
</symbol>
<g id="toolbar-theme" class="theme toolbar">
	<use href="#icon"/>
</g>
<g id="default-theme" class="theme default">
	<use href="#icon"/>
</g>
<g id="toolbar" class="prefer-color-scheme toolbar">
	<use href="#icon"/>
</g>
<g id="default" class="prefer-color-scheme default">
	<use href="#icon"/>
</g>
</svg>